<?xml version="1.0" encoding="UTF-8" standalone="no"?>
<!-- Created with Inkscape (http://www.inkscape.org/) -->

<svg
   width="99.681519mm"
   height="37.203041mm"
   viewBox="0 0 99.681519 37.203041"
   version="1.1"
   id="svg104307"
   inkscape:version="1.2.2 (b0a8486541, 2022-12-01)"
   sodipodi:docname="x-cite-logo.svg"
   xmlns:inkscape="http://www.inkscape.org/namespaces/inkscape"
   xmlns:sodipodi="http://sodipodi.sourceforge.net/DTD/sodipodi-0.dtd"
   xmlns="http://www.w3.org/2000/svg"
   xmlns:svg="http://www.w3.org/2000/svg">
  <sodipodi:namedview
     id="namedview104309"
     pagecolor="#ffffff"
     bordercolor="#000000"
     borderopacity="0.25"
     inkscape:showpageshadow="2"
     inkscape:pageopacity="0.0"
     inkscape:pagecheckerboard="0"
     inkscape:deskcolor="#d1d1d1"
     inkscape:document-units="mm"
     showgrid="false"
     inkscape:zoom="0.2102413"
     inkscape:cx="118.91098"
     inkscape:cy="187.87935"
     inkscape:window-width="1920"
     inkscape:window-height="1128"
     inkscape:window-x="0"
     inkscape:window-y="0"
     inkscape:window-maximized="1"
     inkscape:current-layer="layer1" />
  <defs
     id="defs104304">
    <clipPath
       clipPathUnits="userSpaceOnUse"
       id="clipPath930">
      <path
         d="m 156.1499,657 h 283 v 113 h -283 z"
         id="path928" />
    </clipPath>
  </defs>
  <g
     inkscape:label="Layer 1"
     inkscape:groupmode="layer"
     id="layer1"
     transform="translate(-73.543282,-99.493537)">
    <g
       id="g924"
       transform="matrix(0.35277777,0,0,-0.35277777,18.457033,371.13242)">
      <g
         id="g926"
         clip-path="url(#clipPath930)">
        <path
           d="m 242.9577,681.2453 c -2.2583,-2.256 -5.9303,-2.256 -8.1886,0 l -18.3099,18.2995 c -4.9349,4.9331 -5.5389,12.5801 -1.811,18.1778 l 28.3095,-28.2934 c 1.0932,-1.0926 1.6952,-2.5464 1.6952,-4.092 0,-1.5456 -0.602,-2.9994 -1.6952,-4.0919 m -26.4985,63.0844 18.3099,18.3005 c 1.1292,1.1275 2.6117,1.6923 4.0943,1.6923 1.4826,0 2.9651,-0.5648 4.0943,-1.6923 1.0932,-1.0936 1.6952,-2.5464 1.6952,-4.0919 0,-1.5456 -0.602,-2.9984 -1.6952,-4.091 l -28.3115,-28.2964 c -1.5684,2.3458 -2.411,5.1017 -2.411,7.9873 0,3.8495 1.4995,7.4685 4.224,10.1915 m 2.0087,-22.3915 28.5092,28.492 c 2.1664,2.1652 3.3605,5.0448 3.3605,8.1081 0,3.0632 -1.1941,5.9428 -3.3605,8.109 -4.4747,4.4711 -11.7547,4.4711 -16.2264,0 l -18.3109,-18.3005 c -3.7977,-3.7956 -5.8883,-8.8414 -5.8883,-14.2086 0,-4.4761 1.4586,-8.7257 4.1432,-12.2149 -6.0221,-7.8716 -5.454,-19.2006 1.7451,-26.3946 l 18.3109,-18.3005 c 2.2354,-2.2351 5.1745,-3.3526 8.1127,-3.3526 2.9382,0 5.8764,1.1175 8.1137,3.3526 2.1664,2.1662 3.3605,5.0458 3.3605,8.109 0,3.0632 -1.1941,5.9429 -3.3605,8.1081 z"
           style="fill:#40dcd0;fill-opacity:1;fill-rule:nonzero;stroke:none"
           id="path932" />
        <path
           d="m 190.0284,699.5452 -18.31,-18.2995 c -2.2592,-2.256 -5.9302,-2.256 -8.1885,0 -1.0942,1.0925 -1.6962,2.5463 -1.6962,4.0919 0,1.5446 0.602,2.9984 1.6962,4.092 l 28.3085,28.2924 c 3.7279,-5.5967 3.1248,-13.2437 -1.81,-18.1768 m -28.1947,58.9935 c 0,1.5455 0.602,2.9983 1.6962,4.0909 1.1291,1.1285 2.6107,1.6923 4.0943,1.6923 1.4815,0 2.9651,-0.5638 4.0942,-1.6913 l 18.31,-18.3015 c 2.7235,-2.722 4.223,-6.342 4.223,-10.1915 0,-2.8846 -0.8416,-5.6405 -2.41,-7.9863 l -28.3115,28.2964 c -1.0942,1.0916 -1.6962,2.5454 -1.6962,4.091 m 38.1024,-24.4011 c 0,5.3682 -2.0916,10.414 -5.8883,14.2086 l -18.311,18.3015 c -4.4726,4.4701 -11.7517,4.4701 -16.2263,0 -2.1674,-2.1662 -3.3605,-5.0458 -3.3605,-8.109 0,-3.0633 1.1931,-5.9429 3.3605,-8.1091 l 28.5082,-28.492 -28.5082,-28.4919 c -2.1674,-2.1662 -3.3605,-5.0449 -3.3605,-8.1081 0,-3.0632 1.1931,-5.9428 3.3605,-8.109 2.2373,-2.2361 5.1755,-3.3536 8.1137,-3.3536 2.9381,0 5.8763,1.1175 8.1126,3.3536 l 18.311,18.2995 c 7.1981,7.195 7.7672,18.523 1.7441,26.3946 2.6856,3.4902 4.1442,7.7388 4.1442,12.2149"
           style="fill:#40dcd0;fill-opacity:1;fill-rule:nonzero;stroke:none"
           id="path934" />
        <path
           d="m 276.978,735.5811 c 2.1175,3.9003 5.0517,6.9236 8.8035,9.0709 3.7509,2.1462 8.0468,3.2199 12.8878,3.2199 6.2318,0 11.3913,-1.5576 15.4756,-4.6717 3.7139,-2.8327 6.3136,-6.7012 7.8022,-11.6083 0.2256,-0.7434 -0.3255,-1.4987 -1.1022,-1.4987 h -11.3913 c -0.4812,0 -0.8965,0.3053 -1.0782,0.7503 -0.7438,1.823 -1.8769,3.2808 -3.3974,4.3744 -1.7252,1.2392 -3.8577,1.8598 -6.3985,1.8598 -3.631,0 -6.5053,-1.3151 -8.6228,-3.9452 -2.1186,-2.6312 -3.1768,-6.3659 -3.1768,-11.2032 0,-4.7775 1.0582,-8.4813 3.1768,-11.1115 2.1175,-2.6311 4.9918,-3.9462 8.6228,-3.9462 4.856,0 8.1206,2.0494 9.7949,6.1494 0.1807,0.443 0.596,0.7443 1.0742,0.7443 h 11.3813 c 0.7807,0 1.3338,-0.7623 1.0992,-1.5076 -1.4935,-4.7386 -4.1032,-8.5611 -7.8301,-11.4637 -4.1153,-3.2059 -9.2578,-4.8073 -15.4297,-4.8073 -4.841,0 -9.1369,1.0726 -12.8878,3.2198 -3.7518,2.1463 -6.686,5.1706 -8.8035,9.071 -2.1185,3.9013 -3.1768,8.4503 -3.1768,13.6518 0,5.2004 1.0583,9.7514 3.1768,13.6518"
           style="fill:#083d77;fill-opacity:1;fill-rule:nonzero;stroke:none"
           id="path936" />
        <path
           d="m 332.5686,753.2398 c -1.4835,1.4198 -2.2233,3.1889 -2.2233,5.3062 0,2.1164 0.7398,3.8854 2.2233,5.3063 1.4816,1.4209 3.3425,2.1323 5.5819,2.1323 2.2383,0 4.0982,-0.7114 5.5808,-2.1323 1.4826,-1.4209 2.2243,-3.1899 2.2243,-5.3063 0,-2.1173 -0.7417,-3.8864 -2.2243,-5.3062 -1.4826,-1.4219 -3.3425,-2.1313 -5.5808,-2.1313 -2.2394,0 -4.1003,0.7094 -5.5819,2.1313"
           style="fill:#083d77;fill-opacity:1;fill-rule:nonzero;stroke:none"
           id="path938" />
        <path
           d="m 344.4129,745.9056 v -47.9529 c 0,-0.6346 -0.5152,-1.1495 -1.1511,-1.1495 h -10.4049 c -0.636,0 -1.1511,0.5149 -1.1511,1.1495 v 47.9529 c 0,0.6356 0.5151,1.1505 1.1511,1.1505 h 10.4049 c 0.6359,0 1.1511,-0.5149 1.1511,-1.1505"
           style="fill:#083d77;fill-opacity:1;fill-rule:nonzero;stroke:none"
           id="path940" />
        <path
           d="m 372.5437,736.624 v -24.3092 c 0,-1.6942 0.4083,-2.9195 1.2249,-3.6748 0.8167,-0.7564 2.1924,-1.1325 4.1303,-1.1325 h 4.7491 c 0.635,0 1.1502,-0.5149 1.1502,-1.1505 v -8.4034 c 0,-0.6356 -0.5152,-1.1505 -1.1502,-1.1505 h -6.8367 c -10.7094,0 -16.0646,5.1995 -16.0646,15.6015 v 24.2194 h -4.8401 c -0.6349,0 -1.1511,0.5149 -1.1511,1.1505 v 8.131 c 0,0.6356 0.5162,1.1505 1.1511,1.1505 h 4.8401 v 10.3401 c 0,0.6356 0.5151,1.1504 1.1501,1.1504 h 4.5365 c 0.4293,0 0.8227,-0.2384 1.0204,-0.6186 l 5.6676,-10.8719 h 10.5267 c 0.635,0 1.1502,-0.5149 1.1502,-1.1505 v -8.131 c 0,-0.6356 -0.5152,-1.1505 -1.1502,-1.1505 z"
           style="fill:#083d77;fill-opacity:1;fill-rule:nonzero;stroke:none"
           id="path942" />
        <path
           d="m 425.5515,726.6462 c -0.0609,3.2658 -1.241,5.88 -3.5392,7.8467 -2.3003,1.9636 -5.1136,2.9474 -8.4412,2.9474 -3.1468,0 -5.7944,-0.9519 -7.9409,-2.8566 -2.1495,-1.9058 -3.4653,-4.552 -3.9485,-7.9375 z m 11.7976,-8.5261 h -35.7593 c 0.3025,-3.629 1.5734,-6.4717 3.8128,-8.5272 2.2373,-2.0564 4.9918,-3.0841 8.2594,-3.0841 4.4736,0 7.7253,1.8209 9.752,5.4629 0.2076,0.3722 0.589,0.6146 1.0153,0.6146 h 11.4053 c 0.8026,0 1.3647,-0.8042 1.0832,-1.5555 -1.5535,-4.1419 -4.1622,-7.5992 -7.8262,-10.3731 -4.1162,-3.1141 -9.1669,-4.6706 -15.1581,-4.6706 -4.841,0 -9.1819,1.0726 -13.0236,3.2198 -3.8426,2.1463 -6.8377,5.1846 -8.9852,9.1169 -2.1485,3.9303 -3.2227,8.4642 -3.2227,13.6049 0,5.2005 1.0583,9.7663 3.1768,13.6977 2.1175,3.9303 5.0826,6.9536 8.8944,9.0709 3.8127,2.1163 8.1995,3.175 13.1603,3.175 4.7802,0 9.0612,-1.0288 12.8429,-3.0842 3.7808,-2.0565 6.717,-4.975 8.8046,-8.7537 2.0875,-3.7796 3.1308,-8.119 3.1308,-13.0172 0,-1.3989 -0.0729,-2.69 -0.2166,-3.8734 -0.0709,-0.5837 -0.5581,-1.0237 -1.1461,-1.0237"
           style="fill:#083d77;fill-opacity:1;fill-rule:nonzero;stroke:none"
           id="path944" />
        <path
           d="m 244.6531,721.9379 c 0,-5.0608 4.1053,-9.1637 9.1689,-9.1637 5.0637,0 9.168,4.1029 9.168,9.1637 0,5.0608 -4.1043,9.1638 -9.168,9.1638 -5.0636,0 -9.1689,-4.103 -9.1689,-9.1638"
           style="fill:#40dcd0;fill-opacity:1;fill-rule:nonzero;stroke:none"
           id="path946" />
        <g
           id="g948"
           transform="matrix(0.9983595,0,0,0.9977924,156.1499,657)">
          <text
             xml:space="preserve"
             transform="matrix(1,0,0,-1,116.9136,7.6914)"
             style="font-variant:normal;font-weight:500;font-size:13.2154px;font-family:Poppins;-inkscape-font-specification:Poppins-Medium;writing-mode:lr-tb;fill:#083d77;fill-opacity:1;fill-rule:nonzero;stroke:none"
             id="text952"><tspan
               x="0 13.202185 21.356087 24.844952 32.774193 41.205616 54.936417 63.090321 66.526321 71.442451 79.873878 83.309883 88.226013 96.802803 104.9567 108.39271 118.60822 122.09708 127.01321 130.50208 138.11415 146.26805 151.34276 158.39978"
               y="0"
               sodipodi:role="line"
               id="tspan950">Welcome to the Citiverse</tspan></text>
        </g>
      </g>
    </g>
  </g>
</svg>
